# xmcd CD database file
#
# Track frame offsets:
#	150
#	25492
#	40672
#
# Disc length: 878 seconds
#
# Revision: 0
# Processed by: cddbd v1.5.1PL0 Copyright (c) Steve Scherf et al.
# Submitted via: CDex 1.51
#
DISCID=1c036c03
DTITLE=cornelius - THE SUN MY ENEMY
DYEAR=1900
DGENRE=Techno
TTITLE0=THE SUN MY ENEMY
TTITLE1=DIAMOND BOSSA
TTITLE2=THE SUN MY ENEMY(instrumental)
EXTD=
EXTT0=
EXTT1=
EXTT2=
PLAYORDER=
